<?xml version="1.0" standalone="no"?>
<!DOCTYPE svg PUBLIC "-//W3C//DTD SVG 20010904//EN"
 "http://www.w3.org/TR/2001/REC-SVG-20010904/DTD/svg10.dtd">
<svg version="1.0" xmlns="http://www.w3.org/2000/svg"
 width="587.000000pt" height="555.000000pt" viewBox="0 0 587.000000 555.000000"
 preserveAspectRatio="xMidYMid meet">

<g transform="translate(0.000000,555.000000) scale(0.100000,-0.100000)"
fill="#000000" stroke="none">
<path d="M0 4993 c1 -307 5 -551 9 -543 14 25 23 78 11 60 -7 -12 -10 -7 -10
19 0 26 3 32 16 27 8 -3 13 -2 9 3 -3 5 -1 11 4 13 4 1 12 13 15 26 6 16 3 22
-8 22 -9 0 -16 7 -16 15 0 18 26 20 34 3 3 -9 5 -8 4 2 -1 8 6 30 16 48 9 19
15 36 12 39 -3 3 -10 -6 -15 -21 -6 -14 -12 -26 -13 -26 -2 0 -4 16 -6 36 -2
34 -1 36 23 30 17 -4 25 -2 26 6 0 7 3 29 5 48 3 19 5 52 5 73 0 39 14 47 39
25 11 -10 11 -9 0 6 -14 18 -13 19 2 13 13 -4 15 -2 11 10 -5 12 -3 14 7 8 9
-6 11 -4 6 4 -5 7 -14 10 -21 7 -11 -4 -11 2 1 29 8 19 14 46 14 60 0 18 5 25
20 25 16 0 20 7 20 35 0 24 5 35 15 35 10 0 15 10 15 30 0 20 5 30 15 30 8 0
15 7 15 15 0 8 7 15 15 15 17 0 18 4 15 74 -1 27 3 52 9 56 6 3 15 26 20 51 5
24 9 36 10 27 1 -10 6 -18 12 -18 8 0 10 18 7 53 -4 52 -3 53 19 49 16 -3 23
0 23 11 0 9 8 18 18 20 9 3 -83 5 -206 6 l-223 1 1 -557z"/>
<path d="M4713 5543 c12 -3 17 -15 17 -39 0 -36 25 -49 33 -16 3 9 5 2 6 -15
1 -24 -3 -33 -15 -33 -23 0 -11 -24 14 -28 14 -2 23 -13 27 -33 4 -16 13 -29
21 -29 8 0 14 -7 14 -15 0 -9 7 -18 15 -21 9 -4 15 -19 15 -35 0 -19 5 -29 15
-29 8 0 15 -7 15 -15 0 -8 -4 -15 -10 -15 -5 0 -10 -7 -10 -15 0 -8 5 -15 10
-15 6 0 10 7 10 15 0 8 7 15 15 15 8 0 15 -7 15 -15 0 -8 -4 -15 -10 -15 -5 0
-10 -7 -10 -15 0 -8 7 -15 15 -15 8 0 15 -7 15 -15 0 -8 5 -15 10 -15 6 0 10
-13 10 -29 0 -17 5 -33 10 -36 6 -3 10 -21 11 -38 0 -27 2 -29 9 -12 7 17 9
17 9 3 1 -10 6 -18 12 -18 7 0 8 -11 4 -30 -6 -26 -4 -30 15 -30 18 0 20 -5
17 -32 -2 -18 -2 -25 0 -15 7 28 24 20 22 -10 -5 -60 0 -73 25 -73 27 0 37
-27 41 -107 2 -55 15 -68 16 -17 1 23 4 30 6 17 2 -13 8 -23 12 -23 5 0 7 -38
6 -85 -1 -49 2 -80 7 -73 4 7 5 25 2 41 -3 16 -1 27 5 27 6 0 11 -7 11 -15 0
-8 5 -15 10 -15 6 0 10 -6 10 -13 0 -7 9 -19 20 -27 27 -19 25 -33 -2 -25 -21
6 -22 5 -5 -8 10 -9 15 -21 11 -31 -5 -12 0 -19 16 -23 19 -5 22 -11 17 -44
-6 -47 1 -79 18 -79 16 0 25 -32 25 -87 0 -24 5 -43 10 -43 6 0 10 -13 10 -30
0 -16 -4 -30 -10 -30 -5 0 -10 -7 -10 -15 0 -8 5 -15 10 -15 6 0 10 7 10 15 0
8 7 15 15 15 18 0 20 -21 4 -37 -6 -6 -8 -17 -3 -24 5 -9 9 -8 15 7 6 15 8 12
8 -13 1 -22 6 -33 16 -33 17 0 19 -9 5 -44 -7 -20 -6 -24 5 -19 9 3 15 -1 15
-11 0 -9 5 -16 11 -16 7 0 9 -11 6 -30 -4 -16 -2 -32 3 -35 6 -3 10 -26 10
-51 0 -24 5 -44 10 -44 6 0 10 -7 10 -15 0 -8 7 -15 15 -15 8 0 15 -7 15 -15
0 -8 -4 -15 -10 -15 -5 0 -10 -7 -10 -15 0 -8 5 -15 10 -15 6 0 10 -14 10 -30
0 -18 6 -33 15 -36 18 -7 20 -61 3 -67 -19 -6 -13 -251 7 -292 19 -43 17 -322
-4 -334 -8 -5 -10 -14 -6 -21 6 -9 9 -9 16 1 5 8 9 9 9 3 0 -6 -6 -17 -14 -23
-12 -10 -12 -16 1 -42 8 -16 12 -35 10 -42 -3 -7 -6 -5 -6 6 -1 9 -5 17 -10
17 -4 0 -10 -61 -13 -136 -3 -82 -9 -138 -15 -142 -6 -4 -15 -55 -19 -115 -4
-59 -11 -107 -17 -107 -6 0 -7 -19 -4 -47 3 -25 1 -58 -3 -72 -5 -14 -11 -43
-15 -63 -3 -22 -12 -38 -19 -38 -9 0 -16 -27 -23 -88 -5 -48 -17 -103 -26
-122 -8 -19 -19 -51 -23 -70 -3 -19 -11 -38 -16 -41 -8 -5 -12 -42 -18 -159
-2 -26 -4 -30 -9 -15 -3 11 -9 -18 -12 -65 -3 -47 -6 508 -7 1233 -2 973 -5
1317 -13 1317 -10 0 -259 145 -474 275 -93 56 -363 211 -550 315 -82 46 -285
161 -450 255 -341 196 -841 475 -851 475 -6 0 -209 -114 -824 -465 -195 -111
-537 -306 -760 -433 -223 -126 -469 -268 -547 -313 -78 -46 -154 -91 -170
-100 l-29 -16 -2 -1326 -1 -1326 192 -114 c227 -135 482 -283 622 -360 171
-93 624 -346 765 -427 74 -42 212 -119 305 -170 94 -51 233 -129 309 -173
l139 -80 31 17 c17 10 184 104 371 208 301 169 704 396 1375 777 113 63 214
121 225 127 30 16 81 46 170 99 44 26 96 56 115 67 l35 20 -25 -21 c-14 -12
-30 -25 -37 -31 -7 -5 -17 -10 -23 -10 -5 0 -10 -4 -10 -10 0 -5 -6 -10 -14
-10 -8 0 -17 -14 -21 -30 -4 -17 -10 -28 -15 -25 -4 3 -6 -4 -3 -15 4 -14 0
-20 -11 -20 -13 0 -16 -11 -16 -50 0 -47 -2 -50 -26 -50 l-26 0 7 -65 c6 -56
5 -65 -9 -65 -11 0 -16 -9 -16 -30 0 -21 -5 -30 -16 -30 -12 0 -15 -6 -10 -26
5 -20 3 -27 -14 -31 -11 -3 -20 -12 -20 -19 0 -8 -6 -14 -12 -14 -25 0 -42
-18 -31 -32 5 -7 13 -20 16 -29 4 -13 1 -16 -14 -12 -13 4 -19 0 -19 -11 0 -9
-4 -16 -10 -16 -5 0 -10 -7 -10 -15 0 -8 5 -15 10 -15 14 0 12 -13 -6 -36 -8
-10 -12 -13 -8 -5 5 11 3 13 -10 8 -10 -4 -20 -7 -22 -7 -3 0 -2 -4 1 -10 3
-5 -6 -22 -20 -36 -14 -14 -24 -33 -22 -42 4 -14 5 -14 6 -2 0 8 11 21 24 29
21 13 22 13 5 -6 -10 -11 -18 -25 -18 -32 0 -7 9 -3 20 10 10 13 19 21 20 17
0 -4 -29 -44 -65 -88 -38 -47 -63 -86 -59 -93 4 -7 3 -9 -1 -4 -5 4 -17 -1
-28 -10 -19 -17 -19 -17 -8 2 6 11 36 49 66 85 29 35 51 67 49 70 -3 3 -12 -4
-19 -15 -8 -11 -18 -24 -23 -30 -4 -5 -27 -35 -51 -65 -24 -30 -58 -72 -77
-92 -19 -21 -31 -38 -26 -38 4 0 18 14 31 31 13 17 25 28 28 25 3 -3 1 -12 -5
-19 -7 -8 -8 -18 -4 -22 4 -5 2 -5 -5 -2 -6 4 -20 -4 -31 -18 -20 -26 -39 -35
-26 -12 5 8 3 8 -9 -2 -9 -7 -15 -17 -12 -21 2 -4 -7 -17 -20 -30 -13 -13 -22
-27 -19 -31 3 -5 -2 -9 -11 -9 -10 0 -13 5 -9 12 4 7 3 8 -5 4 -6 -4 -9 -11
-6 -16 5 -8 -13 -25 -27 -25 -12 0 -14 -12 -4 -22 5 -5 6 -3 2 4 -5 9 -2 11 9
7 14 -6 14 -8 -2 -19 -13 -10 -22 -10 -31 -3 -9 8 -20 4 -42 -17 -16 -15 -27
-31 -25 -35 3 -4 -4 -15 -14 -24 -10 -10 -17 -25 -14 -35 3 -11 -1 -18 -11
-18 -12 0 -13 4 -5 14 9 10 8 13 -1 13 -9 0 -7 7 6 22 11 13 2 9 -23 -11 -48
-37 -57 -51 -16 -24 21 14 25 14 18 3 -5 -8 -10 -23 -11 -32 -2 -29 -3 -29
-23 -18 -14 7 -22 7 -27 -2 -4 -6 -3 -8 4 -4 6 3 13 2 17 -4 4 -7 272 -10 796
-10 l789 0 0 2775 0 2775 -587 -1 c-324 -1 -580 -3 -570 -6z m-1565 -319 c114
-65 279 -158 367 -207 88 -50 228 -130 311 -178 83 -48 279 -160 437 -247 157
-88 432 -247 611 -353 l325 -194 0 -1286 c1 -1213 0 -1287 -16 -1301 -27 -23
-404 -243 -623 -363 -107 -60 -287 -161 -400 -225 -113 -65 -335 -191 -495
-280 -159 -90 -388 -218 -507 -286 -120 -68 -221 -124 -224 -124 -3 0 -56 29
-118 64 -162 93 -626 353 -976 548 -522 291 -637 356 -907 517 l-263 156 0
1293 c0 1222 1 1293 18 1299 9 3 98 54 197 113 99 59 293 171 430 250 138 78
448 256 690 395 632 363 919 525 928 525 5 0 102 -52 215 -116z m1899 -246
c-3 -8 -6 -5 -6 6 -1 11 2 17 5 13 3 -3 4 -12 1 -19z m250 -634 c-3 -3 -12 -4
-19 -1 -8 3 -5 6 6 6 11 1 17 -2 13 -5z m230 -1051 c-2 -16 -4 -5 -4 22 0 28
2 40 4 28 2 -13 2 -35 0 -50z m-130 -1310 c-3 -10 -5 -2 -5 17 0 19 2 27 5 18
2 -10 2 -26 0 -35z m-327 -878 c0 -8 -7 -15 -15 -15 -8 0 -15 7 -15 15 0 8 7
15 15 15 8 0 15 -7 15 -15z m-89 -278 c-10 -9 -11 -8 -5 6 3 10 9 15 12 12 3
-3 0 -11 -7 -18z m-58 -92 c-3 -9 -8 -14 -10 -11 -3 3 -2 9 2 15 9 16 15 13 8
-4z m-39 -60 c-9 -14 -18 -25 -21 -25 -5 0 5 18 20 38 17 22 18 13 1 -13z
m-454 -517 l-25 -21 25 8 c25 8 25 7 6 -13 -14 -16 -21 -18 -31 -9 -11 10 -9
16 8 35 11 12 25 22 31 22 6 -1 0 -10 -14 -22z m-40 -63 c-7 -8 -17 -15 -23
-15 -5 0 -2 9 8 20 21 23 35 19 15 -5z"/>
<path d="M2855 5248 c-38 -22 -162 -92 -275 -155 -113 -64 -405 -232 -650
-373 -245 -142 -512 -295 -595 -342 -82 -47 -257 -147 -387 -224 l-238 -139 3
-1262 2 -1262 160 -97 c220 -133 563 -329 895 -508 122 -67 644 -362 985 -557
l169 -97 39 20 c41 20 924 517 1232 693 99 56 248 140 330 185 182 101 502
286 576 333 l54 34 -2 1259 -2 1258 -23 17 c-59 43 -609 366 -862 506 -154 86
-371 209 -481 273 -110 64 -319 183 -463 264 -145 81 -289 163 -320 182 -31
19 -61 34 -67 33 -5 0 -41 -19 -80 -41z m260 -614 c94 -53 214 -121 268 -151
66 -37 99 -62 102 -76 3 -12 4 -332 3 -710 l-3 -689 -159 -93 c-87 -51 -165
-99 -172 -107 -12 -11 5 -47 107 -228 67 -118 145 -258 175 -311 l54 -96 0
-544 0 -544 -63 -32 c-34 -18 -115 -62 -180 -98 -65 -37 -125 -69 -133 -72
-12 -4 -14 78 -14 609 l0 614 -111 200 c-62 109 -136 244 -165 299 l-54 100 0
-907 c0 -500 -2 -908 -4 -908 -3 0 -53 26 -112 57 -59 32 -144 74 -188 94
l-81 36 0 1679 0 1679 65 34 c36 19 157 85 270 148 113 62 210 113 215 113 6
0 87 -43 180 -96z m-917 -876 l-3 -553 -183 0 -184 0 1 165 c1 154 -8 262 -22
277 -7 6 -230 -118 -254 -140 -9 -9 -13 -88 -15 -285 l-3 -272 245 0 c312 0
347 -9 398 -103 l22 -42 0 -802 c0 -442 -2 -803 -6 -803 -3 0 -134 73 -292
163 -158 90 -374 213 -480 273 -106 60 -207 121 -225 135 l-32 27 -3 256 -4
256 191 0 190 0 3 -156 3 -156 130 -74 c72 -41 133 -74 136 -74 4 0 9 21 13
46 8 59 8 597 0 645 l-6 37 -252 5 c-146 3 -266 9 -288 16 -44 14 -93 67 -108
118 -8 26 -10 183 -8 508 2 394 5 475 18 499 12 24 82 67 345 214 182 101 404
225 495 277 91 51 168 93 173 94 4 0 6 -248 5 -551z m1665 455 c94 -53 231
-131 302 -173 72 -43 213 -126 314 -186 101 -60 191 -120 200 -133 14 -22 16
-65 16 -316 l0 -290 -187 -3 -188 -2 -2 202 -3 202 -55 31 c-163 94 -203 114
-211 109 -12 -7 -7 -1794 6 -1794 13 0 239 136 253 153 8 9 12 83 14 218 l3
204 188 3 188 2 -3 -320 -3 -320 -30 -29 c-16 -16 -163 -105 -325 -197 -162
-92 -376 -214 -475 -271 -173 -99 -180 -102 -187 -81 -15 56 -7 3088 9 3088 2
0 81 -43 176 -97z"/>
<path d="M2859 4275 c-36 -18 -70 -40 -77 -47 -13 -16 -23 -1218 -10 -1218 4
0 9 4 12 9 3 5 76 50 161 101 l155 91 0 507 0 507 -76 43 c-42 23 -82 42 -88
42 -6 -1 -41 -16 -77 -35z"/>
<path d="M196 4925 c-9 -26 -7 -32 5 -12 6 10 9 21 6 23 -2 3 -7 -2 -11 -11z"/>
<path d="M145 4869 c-4 -6 -5 -12 -2 -15 2 -3 7 2 10 11 7 17 1 20 -8 4z"/>
<path d="M156 4835 c-9 -26 -7 -32 5 -12 6 10 9 21 6 23 -2 3 -7 -2 -11 -11z"/>
<path d="M126 4815 c-9 -26 -7 -32 5 -12 6 10 9 21 6 23 -2 3 -7 -2 -11 -11z"/>
<path d="M5280 4254 c0 -8 5 -12 10 -9 6 3 10 10 10 16 0 5 -4 9 -10 9 -5 0
-10 -7 -10 -16z"/>
<path d="M5500 2965 c0 -8 5 -15 10 -15 6 0 10 7 10 15 0 8 -4 15 -10 15 -5 0
-10 -7 -10 -15z"/>
<path d="M5412 2160 c0 -19 2 -27 5 -17 2 9 2 25 0 35 -3 9 -5 1 -5 -18z"/>
<path d="M0 735 l0 -735 363 1 c199 1 349 4 332 8 -25 5 -31 12 -33 39 -2 21
-9 32 -18 32 -11 0 -14 8 -11 27 2 16 2 22 0 16 -6 -18 -43 -16 -43 2 0 8 -7
15 -15 15 -8 0 -15 7 -15 15 0 8 -7 15 -15 15 -8 0 -15 7 -15 15 0 8 -7 15
-15 15 -17 0 -20 21 -5 36 11 11 -8 64 -22 64 -5 0 -8 7 -8 15 0 8 -7 15 -15
15 -8 0 -15 5 -15 11 0 6 -11 20 -25 31 -14 11 -25 26 -25 33 0 8 -6 18 -14
22 -7 4 -23 29 -34 54 -12 25 -28 52 -37 59 -8 7 -15 19 -15 26 0 8 -4 14 -10
14 -5 0 -10 7 -10 15 0 8 -4 15 -10 15 -5 0 -10 15 -10 33 0 24 -3 28 -10 17
-7 -11 -10 -7 -10 18 0 21 -5 32 -14 32 -14 0 -32 48 -21 58 3 3 5 -2 5 -11 0
-10 8 -17 20 -17 11 0 20 7 20 15 0 8 -7 15 -15 15 -10 0 -15 10 -15 29 0 20
-6 30 -20 34 -15 4 -20 14 -20 36 0 21 -5 31 -15 31 -10 0 -15 10 -15 30 0 20
-5 30 -15 30 -12 0 -15 14 -15 65 0 51 -3 65 -15 65 -11 0 -15 12 -15 45 0 35
-4 45 -16 45 -14 0 -16 9 -12 65 5 57 4 65 -12 65 -15 0 -19 13 -24 80 -4 44
-12 80 -17 80 -5 0 -9 -288 -9 -735z m60 350 c0 -5 -5 -3 -10 5 -5 8 -10 20
-10 25 0 6 5 3 10 -5 5 -8 10 -19 10 -25z"/>
<path d="M276 684 c-4 -14 -5 -28 -3 -31 3 -2 8 8 11 23 4 14 5 28 3 31 -3 2
-8 -8 -11 -23z"/>
<path d="M340 595 c0 -8 5 -15 10 -15 6 0 10 7 10 15 0 8 -4 15 -10 15 -5 0
-10 -7 -10 -15z"/>
<path d="M4536 285 c-11 -8 -15 -15 -9 -15 6 0 16 7 23 15 16 19 11 19 -14 0z"/>
<path d="M4295 41 c-3 -5 -2 -12 3 -15 5 -3 9 1 9 9 0 17 -3 19 -12 6z"/>
<path d="M4239 23 c-13 -16 -12 -17 4 -4 16 13 21 21 13 21 -2 0 -10 -8 -17
-17z"/>
</g>
</svg>
